<svg width="156" height="151" viewBox="0 0 156 151" fill="none" xmlns="http://www.w3.org/2000/svg">
<g filter="url(#filter0_d_1_413)">
<path d="M83 4C121.208 4 152 33.8721 152 70.5C152 107.128 121.208 137 83 137C44.7915 137 14 107.128 14 70.5C14 33.8721 44.7915 4 83 4Z" fill="white" stroke="#600606" stroke-width="6"/>
<path d="M40.9883 81C39.7578 81 38.6914 80.7676 37.7891 80.3027C36.8867 79.8288 36.1849 79.1953 35.6836 78.4023C35.1914 77.6094 34.9453 76.7389 34.9453 75.791V67.4785C34.9453 66.5215 35.1914 65.651 35.6836 64.8672C36.1849 64.0742 36.8867 63.4453 37.7891 62.9805C38.6914 62.5065 39.7578 62.2695 40.9883 62.2695H45.1992C46.4297 62.2695 47.4961 62.5065 48.3984 62.9805C49.3099 63.4453 50.0117 64.0742 50.5039 64.8672C50.9961 65.651 51.2422 66.5215 51.2422 67.4785V75.791C51.2422 76.7389 50.9961 77.6094 50.5039 78.4023C50.0117 79.1953 49.3099 79.8288 48.3984 80.3027C47.4961 80.7676 46.4297 81 45.1992 81H40.9883ZM38.5 74.8066H39.9629V65.0723L40.6328 64.9492H42.1914L42.7793 65.0723V70.8691H44.2422V65.0723L44.8301 64.9492H46.4023L47.0723 65.0723V74.8066H48.5215V64.5664L47.6602 63.6914L46.5117 63.5H44.7207L43.9824 63.7188L43.5176 64.6621L43.0664 63.7188L42.3145 63.5H40.5234L39.375 63.6914L38.5 64.5664V74.8066ZM57.1758 81C55.9453 81 54.8789 80.7676 53.9766 80.3027C53.0742 79.8288 52.3724 79.1953 51.8711 78.4023C51.3789 77.6094 51.1328 76.7389 51.1328 75.791V67.4785C51.1328 66.5215 51.3789 65.651 51.8711 64.8672C52.3724 64.0742 53.0742 63.4453 53.9766 62.9805C54.8789 62.5065 55.9453 62.2695 57.1758 62.2695H61.3867C62.6172 62.2695 63.6836 62.5065 64.5859 62.9805C65.4974 63.4453 66.1992 64.0742 66.6914 64.8672C67.1836 65.651 67.4297 66.5215 67.4297 67.4785V75.791C67.4297 76.7389 67.1836 77.6094 66.6914 78.4023C66.1992 79.1953 65.4974 79.8288 64.5859 80.3027C63.6836 80.7676 62.6172 81 61.3867 81H57.1758ZM58.0781 74.8066H61.7422L63.1504 74.6426L64.0117 73.7812L64.2031 72.6055V65.7148L64.0117 64.5664L63.1504 63.6914L61.7422 63.5H58.0781L56.6836 63.6914L55.8086 64.5664L55.6445 65.7148V72.6055L55.8086 73.7812L56.7109 74.6426L58.0781 74.8066ZM58.1602 73.3574L57.2715 73.2207L57.0664 72.4004V65.8516L57.2031 65.0996L58.1602 64.9492H61.6602L62.6172 65.0996L62.7539 65.9062V72.4551L62.5625 73.2207L61.6602 73.3574H58.1602ZM73.3633 81C72.1328 81 71.0664 80.7676 70.1641 80.3027C69.2617 79.8288 68.5599 79.1953 68.0586 78.4023C67.5664 77.6094 67.3203 76.7389 67.3203 75.791V67.4785C67.3203 66.5215 67.5664 65.651 68.0586 64.8672C68.5599 64.0742 69.2617 63.4453 70.1641 62.9805C71.0664 62.5065 72.1328 62.2695 73.3633 62.2695H77.5742C78.8047 62.2695 79.8711 62.5065 80.7734 62.9805C81.6849 63.4453 82.3867 64.0742 82.8789 64.8672C83.3711 65.651 83.6172 66.5215 83.6172 67.4785V75.791C83.6172 76.7389 83.3711 77.6094 82.8789 78.4023C82.3867 79.1953 81.6849 79.8288 80.7734 80.3027C79.8711 80.7676 78.8047 81 77.5742 81H73.3633ZM74.2656 74.8066H77.9297L79.3379 74.6426L80.1992 73.7812L80.3906 72.6055V65.7148L80.1992 64.5664L79.3379 63.6914L77.9297 63.5H74.2656L72.8711 63.6914L71.9961 64.5664L71.832 65.7148V72.6055L71.9961 73.7812L72.8984 74.6426L74.2656 74.8066ZM74.3477 73.3574L73.459 73.2207L73.2539 72.4004V65.8516L73.3906 65.0996L74.3477 64.9492H77.8477L78.8047 65.0996L78.9414 65.9062V72.4551L78.75 73.2207L77.8477 73.3574H74.3477ZM89.5508 81C88.3203 81 87.2539 80.7676 86.3516 80.3027C85.4492 79.8288 84.7474 79.1953 84.2461 78.4023C83.7539 77.6094 83.5078 76.7389 83.5078 75.791V67.4785C83.5078 66.5215 83.7539 65.651 84.2461 64.8672C84.7474 64.0742 85.4492 63.4453 86.3516 62.9805C87.2539 62.5065 88.3203 62.2695 89.5508 62.2695H93.7617C94.9922 62.2695 96.0586 62.5065 96.9609 62.9805C97.8724 63.4453 98.5742 64.0742 99.0664 64.8672C99.5586 65.651 99.8047 66.5215 99.8047 67.4785V75.791C99.8047 76.7389 99.5586 77.6094 99.0664 78.4023C98.5742 79.1953 97.8724 79.8288 96.9609 80.3027C96.0586 80.7676 94.9922 81 93.7617 81H89.5508ZM89.3867 74.8613L90.2891 74.6426L91.123 73.8086L92.0254 67.7793L92.9141 73.8086L93.7617 74.6426L94.6504 74.8613L95.5527 74.6426L96.3867 73.8086L97.4805 63.7734L95.9082 63.5L94.9922 73.3027L94.623 73.3848L94.3223 73.2754L92.6953 63.9512H91.3418L89.7285 73.2754L89.4141 73.3848L89.0586 73.3027L88.1289 63.5L86.5566 63.7734L87.6504 73.8086L88.498 74.6426L89.3867 74.8613ZM105.738 81C104.508 81 103.441 80.7676 102.539 80.3027C101.637 79.8288 100.935 79.1953 100.434 78.4023C99.9414 77.6094 99.6953 76.7389 99.6953 75.791V67.4785C99.6953 66.5215 99.9414 65.651 100.434 64.8672C100.935 64.0742 101.637 63.4453 102.539 62.9805C103.441 62.5065 104.508 62.2695 105.738 62.2695H109.949C111.18 62.2695 112.246 62.5065 113.148 62.9805C114.06 63.4453 114.762 64.0742 115.254 64.8672C115.746 65.651 115.992 66.5215 115.992 67.4785V75.791C115.992 76.7389 115.746 77.6094 115.254 78.4023C114.762 79.1953 114.06 79.8288 113.148 80.3027C112.246 80.7676 111.18 81 109.949 81H105.738ZM106.326 74.3691H109.771L111.371 74.1641L111.029 72.6875L109.744 72.9062H106.422L105.547 72.7695L105.355 71.9492V69.1328H111.74V65.6875L111.535 64.5391L110.674 63.6641L109.293 63.5H106.326L104.959 63.6641L104.098 64.5391L103.893 65.6875V72.1816L104.098 73.3301L104.959 74.1914L106.326 74.3691ZM105.355 67.6973V65.8516L105.465 65.0723L106.422 64.9219H109.211L110.141 65.0723L110.277 65.8789V67.6973H105.355ZM121.926 81C120.695 81 119.629 80.7676 118.727 80.3027C117.824 79.8288 117.122 79.1953 116.621 78.4023C116.129 77.6094 115.883 76.7389 115.883 75.791V67.4785C115.883 66.5215 116.129 65.651 116.621 64.8672C117.122 64.0742 117.824 63.4453 118.727 62.9805C119.629 62.5065 120.695 62.2695 121.926 62.2695H126.137C127.367 62.2695 128.434 62.5065 129.336 62.9805C130.247 63.4453 130.949 64.0742 131.441 64.8672C131.934 65.651 132.18 66.5215 132.18 67.4785V75.791C132.18 76.7389 131.934 77.6094 131.441 78.4023C130.949 79.1953 130.247 79.8288 129.336 80.3027C128.434 80.7676 127.367 81 126.137 81H121.926ZM122.514 74.3691H125.959L127.559 74.1641L127.217 72.6875L125.932 72.9062H122.609L121.734 72.7695L121.543 71.9492V69.1328H127.928V65.6875L127.723 64.5391L126.861 63.6641L125.48 63.5H122.514L121.146 63.6641L120.285 64.5391L120.08 65.6875V72.1816L120.285 73.3301L121.146 74.1914L122.514 74.3691ZM121.543 67.6973V65.8516L121.652 65.0723L122.609 64.9219H125.398L126.328 65.0723L126.465 65.8789V67.6973H121.543Z" fill="#600606"/>
<path d="M144.32 72.18C144.32 72.66 144.164 73.044 143.852 73.332L136.688 80.496C136.304 80.832 135.908 81 135.5 81H134.096C133.784 81 133.484 80.904 133.196 80.712C132.932 80.52 132.728 80.28 132.584 79.992C132.32 79.344 132.44 78.744 132.944 78.192L139.1 72C139.364 71.832 139.364 71.616 139.1 71.352L132.944 65.196C132.416 64.716 132.296 64.116 132.584 63.396C132.704 63.084 132.908 62.832 133.196 62.64C133.484 62.448 133.784 62.352 134.096 62.352H135.5C135.908 62.352 136.304 62.52 136.688 62.856L143.852 70.02C144.164 70.332 144.32 70.716 144.32 71.172V72.18Z" fill="#600606"/>
<path d="M149.32 72.18C149.32 72.66 149.164 73.044 148.852 73.332L141.688 80.496C141.304 80.832 140.908 81 140.5 81H139.096C138.784 81 138.484 80.904 138.196 80.712C137.932 80.52 137.728 80.28 137.584 79.992C137.32 79.344 137.44 78.744 137.944 78.192L144.1 72C144.364 71.832 144.364 71.616 144.1 71.352L137.944 65.196C137.416 64.716 137.296 64.116 137.584 63.396C137.704 63.084 137.908 62.832 138.196 62.64C138.484 62.448 138.784 62.352 139.096 62.352H140.5C140.908 62.352 141.304 62.52 141.688 62.856L148.852 70.02C149.164 70.332 149.32 70.716 149.32 71.172V72.18Z" fill="#600606"/>
<path d="M34.176 63.396C34.44 64.068 34.332 64.668 33.852 65.196L27.624 71.352C27.408 71.616 27.408 71.832 27.624 72L33.78 78.192C34.308 78.72 34.44 79.32 34.176 79.992C34.056 80.28 33.852 80.52 33.564 80.712C33.276 80.904 32.964 81 32.628 81H31.26C30.78 81 30.396 80.832 30.108 80.496L22.908 73.332C22.596 73.02 22.44 72.636 22.44 72.18V71.172C22.44 70.764 22.596 70.38 22.908 70.02L30.108 62.856C30.396 62.52 30.78 62.352 31.26 62.352H32.664C33 62.352 33.3 62.448 33.564 62.64C33.852 62.832 34.056 63.084 34.176 63.396Z" fill="#600606"/>
<path d="M29.176 63.396C29.44 64.068 29.332 64.668 28.852 65.196L22.624 71.352C22.408 71.616 22.408 71.832 22.624 72L28.78 78.192C29.308 78.72 29.44 79.32 29.176 79.992C29.056 80.28 28.852 80.52 28.564 80.712C28.276 80.904 27.964 81 27.628 81H26.26C25.78 81 25.396 80.832 25.108 80.496L17.908 73.332C17.596 73.02 17.44 72.636 17.44 72.18V71.172C17.44 70.764 17.596 70.38 17.908 70.02L25.108 62.856C25.396 62.52 25.78 62.352 26.26 62.352H27.664C28 62.352 28.3 62.448 28.564 62.64C28.852 62.832 29.056 63.084 29.176 63.396Z" fill="#600606"/>
</g>
<defs>
<filter id="filter0_d_1_413" x="0" y="0" width="156" height="151" filterUnits="userSpaceOnUse" color-interpolation-filters="sRGB">
<feFlood flood-opacity="0" result="BackgroundImageFix"/>
<feColorMatrix in="SourceAlpha" type="matrix" values="0 0 0 0 0 0 0 0 0 0 0 0 0 0 0 0 0 0 127 0" result="hardAlpha"/>
<feOffset dx="-5" dy="5"/>
<feGaussianBlur stdDeviation="3"/>
<feComposite in2="hardAlpha" operator="out"/>
<feColorMatrix type="matrix" values="0 0 0 0 0 0 0 0 0 0 0 0 0 0 0 0 0 0 0.25 0"/>
<feBlend mode="normal" in2="BackgroundImageFix" result="effect1_dropShadow_1_413"/>
<feBlend mode="normal" in="BackgroundImageFix" in2="effect1_dropShadow_1_413" result="BackgroundImageFix"/>
<feBlend mode="normal" in="SourceGraphic" in2="BackgroundImageFix" result="shape"/>
</filter>
</defs>
</svg>
