<svg width="167" height="66" viewBox="0 0 167 66" fill="none" xmlns="http://www.w3.org/2000/svg">
<g filter="url(#filter0_d_3_33)">
<path d="M4 9.90909H8.20455L18.0909 34.0568H18.4318L28.3182 9.90909H32.5227V39H29.2273V16.8977H28.9432L19.8523 39H16.6705L7.57955 16.8977H7.29545V39H4V9.90909ZM47.995 39.4545C46.0253 39.4545 44.2971 38.9858 42.8104 38.0483C41.3331 37.1108 40.1778 35.7992 39.3445 34.1136C38.5206 32.428 38.1087 30.4583 38.1087 28.2045C38.1087 25.9318 38.5206 23.9479 39.3445 22.2528C40.1778 20.5578 41.3331 19.2415 42.8104 18.304C44.2971 17.3665 46.0253 16.8977 47.995 16.8977C49.9647 16.8977 51.6882 17.3665 53.1655 18.304C54.6522 19.2415 55.8075 20.5578 56.6314 22.2528C57.4647 23.9479 57.8814 25.9318 57.8814 28.2045C57.8814 30.4583 57.4647 32.428 56.6314 34.1136C55.8075 35.7992 54.6522 37.1108 53.1655 38.0483C51.6882 38.9858 49.9647 39.4545 47.995 39.4545ZM47.995 36.4432C49.4912 36.4432 50.7223 36.0597 51.6882 35.2926C52.6541 34.5256 53.3691 33.517 53.8331 32.267C54.2971 31.017 54.5291 29.6629 54.5291 28.2045C54.5291 26.7462 54.2971 25.3873 53.8331 24.1278C53.3691 22.8684 52.6541 21.8504 51.6882 21.0739C50.7223 20.2973 49.4912 19.9091 47.995 19.9091C46.4988 19.9091 45.2678 20.2973 44.3018 21.0739C43.3359 21.8504 42.621 22.8684 42.157 24.1278C41.6929 25.3873 41.4609 26.7462 41.4609 28.2045C41.4609 29.6629 41.6929 31.017 42.157 32.267C42.621 33.517 43.3359 34.5256 44.3018 35.2926C45.2678 36.0597 46.4988 36.4432 47.995 36.4432ZM71.8622 39.4545C69.8925 39.4545 68.1643 38.9858 66.6776 38.0483C65.2003 37.1108 64.045 35.7992 63.2116 34.1136C62.3878 32.428 61.9759 30.4583 61.9759 28.2045C61.9759 25.9318 62.3878 23.9479 63.2116 22.2528C64.045 20.5578 65.2003 19.2415 66.6776 18.304C68.1643 17.3665 69.8925 16.8977 71.8622 16.8977C73.8319 16.8977 75.5554 17.3665 77.0327 18.304C78.5194 19.2415 79.6747 20.5578 80.4986 22.2528C81.3319 23.9479 81.7486 25.9318 81.7486 28.2045C81.7486 30.4583 81.3319 32.428 80.4986 34.1136C79.6747 35.7992 78.5194 37.1108 77.0327 38.0483C75.5554 38.9858 73.8319 39.4545 71.8622 39.4545ZM71.8622 36.4432C73.3584 36.4432 74.5895 36.0597 75.5554 35.2926C76.5213 34.5256 77.2363 33.517 77.7003 32.267C78.1643 31.017 78.3963 29.6629 78.3963 28.2045C78.3963 26.7462 78.1643 25.3873 77.7003 24.1278C77.2363 22.8684 76.5213 21.8504 75.5554 21.0739C74.5895 20.2973 73.3584 19.9091 71.8622 19.9091C70.366 19.9091 69.1349 20.2973 68.169 21.0739C67.2031 21.8504 66.4882 22.8684 66.0241 24.1278C65.5601 25.3873 65.3281 26.7462 65.3281 28.2045C65.3281 29.6629 65.5601 31.017 66.0241 32.267C66.4882 33.517 67.2031 34.5256 68.169 35.2926C69.1349 36.0597 70.366 36.4432 71.8622 36.4432ZM90.5732 39L82.6186 9.90909H86.1982L92.2777 33.6023H92.5618L98.755 9.90909H102.732L108.925 33.6023H109.21L115.289 9.90909H118.869L110.914 39H107.278L100.857 15.8182H100.63L94.2095 39H90.5732ZM129.92 39.4545C127.817 39.4545 126.004 38.9905 124.479 38.0625C122.964 37.125 121.795 35.8182 120.971 34.142C120.156 32.4564 119.749 30.4962 119.749 28.2614C119.749 26.0265 120.156 24.0568 120.971 22.3523C121.795 20.6383 122.941 19.303 124.408 18.3466C125.886 17.3807 127.609 16.8977 129.579 16.8977C130.715 16.8977 131.837 17.0871 132.945 17.4659C134.053 17.8447 135.062 18.4602 135.971 19.3125C136.88 20.1553 137.604 21.2727 138.144 22.6648C138.684 24.0568 138.954 25.7708 138.954 27.8068V29.2273H122.136V26.3295H135.545C135.545 25.0985 135.299 24 134.806 23.0341C134.323 22.0682 133.632 21.3059 132.732 20.7472C131.842 20.1884 130.791 19.9091 129.579 19.9091C128.244 19.9091 127.088 20.2405 126.113 20.9034C125.147 21.5568 124.404 22.4091 123.883 23.4602C123.362 24.5114 123.102 25.6383 123.102 26.8409V28.7727C123.102 30.4205 123.386 31.8172 123.954 32.9631C124.531 34.0994 125.332 34.9659 126.354 35.5625C127.377 36.1496 128.566 36.4432 129.92 36.4432C130.8 36.4432 131.596 36.3201 132.306 36.0739C133.026 35.8182 133.646 35.4394 134.167 34.9375C134.688 34.4261 135.09 33.7917 135.374 33.0341L138.613 33.9432C138.272 35.0417 137.699 36.0076 136.894 36.8409C136.089 37.6648 135.095 38.3087 133.911 38.7727C132.728 39.2273 131.397 39.4545 129.92 39.4545ZM153.201 39.4545C151.099 39.4545 149.285 38.9905 147.761 38.0625C146.246 37.125 145.076 35.8182 144.252 34.142C143.438 32.4564 143.031 30.4962 143.031 28.2614C143.031 26.0265 143.438 24.0568 144.252 22.3523C145.076 20.6383 146.222 19.303 147.69 18.3466C149.167 17.3807 150.89 16.8977 152.86 16.8977C153.996 16.8977 155.119 17.0871 156.227 17.4659C157.335 17.8447 158.343 18.4602 159.252 19.3125C160.161 20.1553 160.886 21.2727 161.425 22.6648C161.965 24.0568 162.235 25.7708 162.235 27.8068V29.2273H145.417V26.3295H158.826C158.826 25.0985 158.58 24 158.087 23.0341C157.604 22.0682 156.913 21.3059 156.013 20.7472C155.123 20.1884 154.072 19.9091 152.86 19.9091C151.525 19.9091 150.37 20.2405 149.394 20.9034C148.428 21.5568 147.685 22.4091 147.164 23.4602C146.643 24.5114 146.383 25.6383 146.383 26.8409V28.7727C146.383 30.4205 146.667 31.8172 147.235 32.9631C147.813 34.0994 148.613 34.9659 149.636 35.5625C150.658 36.1496 151.847 36.4432 153.201 36.4432C154.082 36.4432 154.877 36.3201 155.587 36.0739C156.307 35.8182 156.927 35.4394 157.448 34.9375C157.969 34.4261 158.371 33.7917 158.656 33.0341L161.894 33.9432C161.553 35.0417 160.98 36.0076 160.175 36.8409C159.371 37.6648 158.376 38.3087 157.192 38.7727C156.009 39.2273 154.678 39.4545 153.201 39.4545Z" fill="white"/>
</g>
<g filter="url(#filter1_d_3_33)">
<path d="M38.3253 52.88H38.2613H38.3253L39.1733 49.376L39.8613 46.8H41.8613L42.5813 58H40.4853L40.1813 51.888H40.1013L38.9493 56.4H37.6373L36.4853 51.888H36.4053L36.1013 58H34.0053L34.7253 46.8H36.7253L37.4133 49.376L38.2613 52.88H38.3253ZM48.6543 58H45.1663C44.0996 57.008 43.5663 55.6533 43.5663 53.936C43.5663 53.072 43.6836 52.32 43.9183 51.68C44.1636 51.04 44.5476 50.4213 45.0703 49.824H48.8143C49.3689 50.464 49.7476 51.088 49.9503 51.696C50.1529 52.2933 50.2543 53.04 50.2543 53.936C50.2543 55.6533 49.7209 57.008 48.6543 58ZM46.3023 56.32H47.5183C47.9023 55.5733 48.0943 54.7253 48.0943 53.776C48.0943 52.8267 47.8969 52.0693 47.5023 51.504H46.3023C45.9183 52.048 45.7263 52.8213 45.7263 53.824C45.7263 54.816 45.9183 55.648 46.3023 56.32ZM55.8975 58H52.9375C52.4255 57.584 52.0202 57.0347 51.7215 56.352C51.4229 55.6693 51.2735 54.912 51.2735 54.08V49.824H53.4015V54.016C53.4015 54.9547 53.5775 55.7227 53.9295 56.32H54.9055C55.2575 55.6907 55.4335 54.928 55.4335 54.032V49.824H57.5615V54C57.5615 54.8427 57.4122 55.616 57.1135 56.32C56.8149 57.024 56.4095 57.584 55.8975 58ZM58.884 58V49.824H60.996V58H58.884ZM58.884 46.8H60.996V48.96H58.884V46.8ZM66.0644 51.504H64.8644C64.7044 51.696 64.5711 51.9627 64.4644 52.304C64.3684 52.6453 64.3204 52.976 64.3204 53.296H66.6084C66.6297 52.976 66.5871 52.6453 66.4804 52.304C66.3737 51.952 66.2351 51.6853 66.0644 51.504ZM68.2404 56.32V58H64.1764C63.4297 57.4987 62.9017 56.88 62.5924 56.144C62.2937 55.3973 62.1444 54.6453 62.1444 53.888C62.1444 52.1387 62.8057 50.784 64.1284 49.824H66.7204C67.4351 50.3467 67.9204 50.9013 68.1764 51.488C68.4324 52.0747 68.5604 52.6667 68.5604 53.264C68.5604 53.8613 68.5124 54.3733 68.4164 54.8H64.4324C64.4644 55.0453 64.5551 55.328 64.7044 55.648C64.8644 55.9573 65.0351 56.1813 65.2164 56.32H68.2404ZM70.184 49.824H73.72V51.504H71.224L72.744 53.76C73.4267 54.7307 73.8054 55.3973 73.88 55.76C73.9227 55.9307 73.944 56.1067 73.944 56.288C73.944 57.0453 73.6614 57.616 73.096 58H69.016V56.32H71.944L70.232 53.808C70.1574 53.6907 70.04 53.5253 69.88 53.312C69.7307 53.0987 69.6134 52.928 69.528 52.8C69.4427 52.6613 69.384 52.56 69.352 52.496C69.32 52.432 69.2774 52.352 69.224 52.256C69.1707 52.1493 69.1334 52.0587 69.112 51.984C69.0694 51.7813 69.048 51.616 69.048 51.488C69.048 50.7093 69.4267 50.1547 70.184 49.824ZM74.9298 55.632H77.2338V58H74.9298V55.632ZM79.1626 48.72H76.7466V46.8H83.7546V48.72H81.3386V58H79.1626V48.72ZM87.1775 54.304H85.4655C85.2415 54.5813 85.1295 54.928 85.1295 55.344C85.1295 55.76 85.2469 56.0853 85.4815 56.32H87.1775V54.304ZM83.7375 49.824H87.7055C88.3455 50.208 88.7669 50.6507 88.9695 51.152C89.1722 51.6427 89.2735 52.3147 89.2735 53.168V55.568C89.2735 56.4533 89.2949 57.264 89.3375 58H87.5135L87.2255 57.424C86.8095 57.808 86.2229 58 85.4655 58H84.4575C83.5509 57.4027 83.0975 56.544 83.0975 55.424C83.0975 54.2933 83.5615 53.4027 84.4895 52.752H85.9935C86.4095 52.752 86.7989 52.88 87.1615 53.136V52.336C87.1615 51.92 86.9802 51.6427 86.6175 51.504H83.7375V49.824ZM92.7616 46.8V58H90.6496V46.8H92.7616ZM94.134 58V46.8H96.262V52.736H96.486L97.99 49.824H100.07L98.182 53.392L100.086 58H97.974L96.502 54.416H96.262V58H94.134ZM101.747 49.824H105.283V51.504H102.787L104.307 53.76C104.989 54.7307 105.368 55.3973 105.443 55.76C105.485 55.9307 105.507 56.1067 105.507 56.288C105.507 57.0453 105.224 57.616 104.659 58H100.579V56.32H103.507L101.795 53.808C101.72 53.6907 101.603 53.5253 101.443 53.312C101.293 53.0987 101.176 52.928 101.091 52.8C101.005 52.6613 100.947 52.56 100.915 52.496C100.883 52.432 100.84 52.352 100.787 52.256C100.733 52.1493 100.696 52.0587 100.675 51.984C100.632 51.7813 100.611 51.616 100.611 51.488C100.611 50.7093 100.989 50.1547 101.747 49.824ZM106.492 55.632H108.796V58H106.492V55.632ZM110.198 58V46.8H116.038V48.72H112.39V51.52H115.558V53.376H112.39V58H110.198ZM119.56 58H117.88C117.41 57.4027 117.09 56.8053 116.92 56.208C116.749 55.6107 116.664 54.864 116.664 53.968V49.824H118.792V54.128C118.792 55.0987 118.984 55.8293 119.368 56.32H120.856V49.824H122.984V58H121.304L121.016 57.424C120.61 57.808 120.125 58 119.56 58ZM127.905 49.824H129.601C130.07 50.4213 130.39 51.0187 130.561 51.616C130.731 52.2133 130.817 52.96 130.817 53.856V58H128.689V53.696C128.689 52.6827 128.55 51.952 128.273 51.504H126.481V58H124.353V49.824H126.017L126.305 50.4C126.539 50.1867 126.758 50.0373 126.961 49.952C127.174 49.8667 127.489 49.824 127.905 49.824Z" fill="white"/>
</g>
<defs>
<filter id="filter0_d_3_33" x="-7.62939e-06" y="9.90912" width="166.235" height="37.5454" filterUnits="userSpaceOnUse" color-interpolation-filters="sRGB">
<feFlood flood-opacity="0" result="BackgroundImageFix"/>
<feColorMatrix in="SourceAlpha" type="matrix" values="0 0 0 0 0 0 0 0 0 0 0 0 0 0 0 0 0 0 127 0" result="hardAlpha"/>
<feOffset dy="4"/>
<feGaussianBlur stdDeviation="2"/>
<feComposite in2="hardAlpha" operator="out"/>
<feColorMatrix type="matrix" values="0 0 0 0 0 0 0 0 0 0 0 0 0 0 0 0 0 0 0.25 0"/>
<feBlend mode="normal" in2="BackgroundImageFix" result="effect1_dropShadow_3_33"/>
<feBlend mode="normal" in="SourceGraphic" in2="effect1_dropShadow_3_33" result="shape"/>
</filter>
<filter id="filter1_d_3_33" x="30.0053" y="46.8" width="104.812" height="19.2" filterUnits="userSpaceOnUse" color-interpolation-filters="sRGB">
<feFlood flood-opacity="0" result="BackgroundImageFix"/>
<feColorMatrix in="SourceAlpha" type="matrix" values="0 0 0 0 0 0 0 0 0 0 0 0 0 0 0 0 0 0 127 0" result="hardAlpha"/>
<feOffset dy="4"/>
<feGaussianBlur stdDeviation="2"/>
<feComposite in2="hardAlpha" operator="out"/>
<feColorMatrix type="matrix" values="0 0 0 0 0 0 0 0 0 0 0 0 0 0 0 0 0 0 0.25 0"/>
<feBlend mode="normal" in2="BackgroundImageFix" result="effect1_dropShadow_3_33"/>
<feBlend mode="normal" in="SourceGraphic" in2="effect1_dropShadow_3_33" result="shape"/>
</filter>
</defs>
</svg>
